<svg xmlns="http://www.w3.org/2000/svg" viewBox="0 0 339.35 81.32"><defs><style>.cls-1{fill:#f4f6f9;}.cls-2{fill:#13b8f2;}.cls-3{fill:#6210e1;}.cls-4{fill:#0f7afc;}.cls-5{fill:#ee9948;}.cls-6{fill:#e64442;}.cls-7{fill:#fc6925;}</style></defs><g id="Capa_2" data-name="Capa 2"><g id="Capa_1-2" data-name="Capa 1"><g id="Grupo_6" data-name="Grupo 6"><g id="Grupo_3" data-name="Grupo 3"><path id="Trazado_13" data-name="Trazado 13" class="cls-1" d="M118.29,35.29,133.1,54.05H122.32l-10.19-13-3.3,3.15v9.82H99.74V2.73h9.09V33.45l12.53-12.1H133Z"/><path id="Trazado_14" data-name="Trazado 14" class="cls-1" d="M150.49,20.47c10.49,0,15.84,6.9,16.57,13.35H158c-.81-2.94-3-5.06-7.33-5.06-4.62,0-8.06,3.52-8.06,8.94s3.45,8.95,8.06,8.95c4.33,0,6.53-2.2,7.33-5.06h9.09C166.33,48,161,54.86,150.49,54.86a17.19,17.19,0,0,1-.66-34.38h.66Z"/><path id="Trazado_15" data-name="Trazado 15" class="cls-1" d="M171.87,41.44V21.35H181V39c0,4.7,2.27,7.63,6.45,7.63,4.4,0,7.18-3.15,7.18-7.92V21.35h9.1v32.7h-8.8V50.24c-2,2.71-5.65,4.62-10.34,4.62C176.64,54.86,171.87,49.29,171.87,41.44Z"/><path id="Trazado_16" data-name="Trazado 16" class="cls-1" d="M263.74,34V54.05h-9.09V36.32c0-4.62-2.42-7.56-6.38-7.56s-7,3.16-7,7.92V54.06h-9.09V36.32c0-4.62-2.42-7.56-6.3-7.56-4.11,0-7,3.16-7,7.92V54.06h-9.09V21.35h8.72v3.89a12.55,12.55,0,0,1,10.26-4.77,12.31,12.31,0,0,1,10.71,5.65c2.49-3.74,7-5.65,11.73-5.65C258.76,20.47,263.74,26.05,263.74,34Z"/><path id="Trazado_17" data-name="Trazado 17" class="cls-1" d="M268.63,37.7a16.88,16.88,0,0,1,16.56-17.22h.3A16.64,16.64,0,0,1,302.28,37v.24a21,21,0,0,1-.22,3.45H277.94a8.09,8.09,0,0,0,8.14,6.74c3.52,0,5.94-1.39,6.75-3.81h8.73c-1.32,6.23-6.75,11.29-16,11.29a16.76,16.76,0,0,1-16.95-16.58C268.62,38.09,268.62,37.9,268.63,37.7Zm9.31-3.07h15.25c-.74-4.18-3.82-6.6-7.33-6.6C281.75,28,278.89,30.67,277.94,34.63Z"/><path id="Trazado_18" data-name="Trazado 18" class="cls-1" d="M339.35,34V54.05h-9.09V36.32c0-4.62-2.35-7.56-6.6-7.56s-7.18,3.16-7.18,7.92V54.06h-9.1V21.35h8.73v3.89a12.65,12.65,0,0,1,10.41-4.77C334.44,20.47,339.35,26.05,339.35,34Z"/></g><g id="Grupo_4" data-name="Grupo 4"><path id="Trazado_19" data-name="Trazado 19" class="cls-2" d="M18.34,35.45,44.73,9.06,39.51,3.84A13.12,13.12,0,0,0,21,3.84h0L3.85,21a13.12,13.12,0,0,0,0,18.56L18.35,54a13.12,13.12,0,0,1,0-18.56Z"/><path id="Trazado_20" data-name="Trazado 20" class="cls-3" d="M18.34,25a13.13,13.13,0,0,1,0-18.56L3.84,21a13.13,13.13,0,0,0,0,18.56L21,56.62a13.13,13.13,0,0,0,18.56,0h0l5.22-5.22Z"/><path id="Trazado_21" data-name="Trazado 21" class="cls-4" d="M18.34,35.45l5.22-5.22L18.34,25a13.13,13.13,0,0,1,0-18.56L3.84,21a13.13,13.13,0,0,0,0,18.56L18.34,54a13.13,13.13,0,0,1,0-18.56Z"/></g><g id="Grupo_5" data-name="Grupo 5"><path id="Trazado_22" data-name="Trazado 22" class="cls-5" d="M64.72,45.88,38.33,72.26l5.22,5.22a13.13,13.13,0,0,0,18.56,0h0L79.22,60.37a13.13,13.13,0,0,0,0-18.56l-14.5-14.5a13.12,13.12,0,0,1,0,18.56Z"/><path id="Trazado_23" data-name="Trazado 23" class="cls-6" d="M64.72,56.31a13.12,13.12,0,0,1,0,18.56l14.5-14.5a13.12,13.12,0,0,0,0-18.56L62.11,24.71a13.1,13.1,0,0,0-18.55,0h0l-5.22,5.22Z"/><path id="Trazado_24" data-name="Trazado 24" class="cls-7" d="M64.72,45.88,59.5,51.09l5.22,5.22a13.12,13.12,0,0,1,0,18.56l14.5-14.5a13.12,13.12,0,0,0,0-18.56l-14.5-14.5a13.12,13.12,0,0,1,0,18.56Z"/></g></g><path class="cls-1" d="M99.64,60.2h9.58v2.33h-7v3.55h6.63v2.33h-6.63v3.93h7.37v2.32h-10Z"/><path class="cls-1" d="M114.39,74.66l3.94-5.27-3.39-4.53h3l2,2.94L122,64.86h2.8l-3.35,4.53,3.94,5.27h-3l-2.56-3.51-2.57,3.51Z"/><path class="cls-1" d="M141.25,69.76c0,2.78-1.84,5.15-4.74,5.15a4.08,4.08,0,0,1-3.33-1.49h-.06v5.9h-2.45V64.86H133v1.47h0a3.78,3.78,0,0,1,3.39-1.72C139.39,64.61,141.25,66.84,141.25,69.76Zm-5.33,2.94A2.94,2.94,0,1,0,133,69.76,2.83,2.83,0,0,0,135.92,72.7Z"/><path class="cls-1" d="M156.87,69.93v.69H149.4A2.54,2.54,0,0,0,152,73a3.24,3.24,0,0,0,2.64-1.33L156.42,73a5.24,5.24,0,1,1-4.14-8.34C155.38,64.61,156.87,67,156.87,69.93Zm-2.45-1.15a2.26,2.26,0,0,0-2.51-2.33,2.43,2.43,0,0,0-2.51,2.33Z"/><path class="cls-1" d="M163.06,64.86h2.45v1.55h0a3.14,3.14,0,0,1,2.9-1.8,2.75,2.75,0,0,1,.88.15v2.37a4.23,4.23,0,0,0-1.18-.19,2.47,2.47,0,0,0-2.64,2.62v5.1h-2.45Z"/><path class="cls-1" d="M173.76,66.94V64.86h2V62h2.45v2.84h2.69v2.08h-2.69v4.35c0,1,.41,1.54,1.37,1.54a2.41,2.41,0,0,0,1.32-.31v2.06a5.42,5.42,0,0,1-1.94.33c-2.31,0-3.2-.9-3.2-3.37v-4.6Z"/><path class="cls-1" d="M196.93,69.76a5.34,5.34,0,1,1-5.33-5.15A5.07,5.07,0,0,1,196.93,69.76ZM191.6,72.7a2.94,2.94,0,1,0-2.88-2.94A2.83,2.83,0,0,0,191.6,72.7Z"/><path class="cls-1" d="M210,66.1l-1.64,1.48a2.22,2.22,0,0,0-1.92-1c-.79,0-1.43.41-1.43,1.05s1.11.94,2.33,1.22c1.51.35,3,.9,3,2.92s-1.81,3.15-4.24,3.15a4.75,4.75,0,0,1-3.8-1.51l1.63-1.53a3,3,0,0,0,2.33,1.2c.9,0,1.63-.45,1.63-1.12,0-.94-1.18-1.11-2.43-1.39s-2.86-.78-2.86-2.78c0-2.39,2.25-3.17,3.92-3.17A4.25,4.25,0,0,1,210,66.1Z"/><path class="cls-1" d="M232,60.2c3.74,0,7.29,2.37,7.29,7.23,0,5.13-4.45,7.23-7.6,7.23h-5.45V60.2Zm-1.17,12.14c3.09,0,5.76-1.39,5.76-4.91s-2.26-4.9-5.41-4.9h-2.37v9.81Z"/><path class="cls-1" d="M248.27,61.53A1.49,1.49,0,0,1,246.68,63a1.47,1.47,0,1,1,1.59-1.47Zm-.34,13.13h-2.45v-9.8h2.45Z"/><path class="cls-1" d="M262.37,66.33h0V64.86h2.33v9c0,3.53-1.84,5.7-5.54,5.7A7,7,0,0,1,254.34,78l1.47-2a4.75,4.75,0,0,0,3.37,1.41c2.29,0,3.11-1.18,3.11-3.37v-.63h0A4,4,0,0,1,259,74.79a4.81,4.81,0,0,1-4.88-5c0-2.94,1.83-5.15,4.82-5.15A3.79,3.79,0,0,1,262.37,66.33Zm-2.88,6.25a2.77,2.77,0,0,0,2.92-2.88,2.71,2.71,0,0,0-2.92-2.88,2.76,2.76,0,0,0-2.88,2.92A2.83,2.83,0,0,0,259.49,72.58Z"/><path class="cls-1" d="M274.26,61.53a1.58,1.58,0,1,1-1.6-1.47A1.5,1.5,0,0,1,274.26,61.53Zm-.35,13.13h-2.45v-9.8h2.45Z"/><path class="cls-1" d="M279.48,66.94V64.86h2V62H284v2.84h2.69v2.08H284v4.35c0,1,.41,1.54,1.37,1.54a2.41,2.41,0,0,0,1.32-.31v2.06a5.42,5.42,0,0,1-1.94.33c-2.31,0-3.2-.9-3.2-3.37v-4.6Z"/><path class="cls-1" d="M291.82,72c0-2.27,1.82-3.41,6-3.41h.75v-.29c0-1.14-.9-1.82-2.24-1.82a3.9,3.9,0,0,0-2.62,1l-1.29-1.28a5.64,5.64,0,0,1,4.17-1.58c3.35,0,4.19,1.88,4.19,4.19v5.86H298.6V73.32h-.06a3.53,3.53,0,0,1-3.15,1.59C293.37,74.91,291.82,73.77,291.82,72Zm2.45-.19c0,.84.82,1.29,1.74,1.29,1.67,0,2.45-.94,2.45-2.19v-.61h-.72C295.58,70.27,294.27,70.74,294.27,71.78Z"/><path class="cls-1" d="M309.84,74.66h-2.46V59.22h2.46Z"/><path class="cls-1" d="M326,69.93v.69h-7.47A2.54,2.54,0,0,0,321.15,73a3.25,3.25,0,0,0,2.64-1.33L325.54,73a5.25,5.25,0,1,1-4.14-8.34C324.5,64.61,326,67,326,69.93Zm-2.45-1.15A2.26,2.26,0,0,0,321,66.45a2.43,2.43,0,0,0-2.51,2.33Z"/><path class="cls-1" d="M339,66.1l-1.63,1.48a2.22,2.22,0,0,0-1.92-1c-.8,0-1.43.41-1.43,1.05s1.1.94,2.33,1.22c1.51.35,3,.9,3,2.92s-1.82,3.15-4.25,3.15a4.76,4.76,0,0,1-3.8-1.51l1.64-1.53a2.93,2.93,0,0,0,2.32,1.2c.9,0,1.64-.45,1.64-1.12,0-.94-1.19-1.11-2.43-1.39s-2.86-.78-2.86-2.78c0-2.39,2.24-3.17,3.92-3.17A4.23,4.23,0,0,1,339,66.1Z"/></g></g></svg>